HIERARCHY
ROOT Hips
{
	OFFSET 62.890800 8.863803 43.568401
	CHANNELS 6 Xposition Yposition Zposition Zrotation Xrotation Yrotation
	JOINT Chest
	{
		OFFSET -0.160400 1.630001 7.806301
		CHANNELS 6 Xposition Yposition Zposition Zrotation Xrotation Yrotation
		JOINT Chest2
		{
			OFFSET 0.000000 0.000000 3.197998
			CHANNELS 6 Xposition Yposition Zposition Zrotation Xrotation Yrotation
			JOINT Neck
			{
				OFFSET 0.000000 0.000001 7.440701
				CHANNELS 6 Xposition Yposition Zposition Zrotation Xrotation Yrotation
				JOINT Head
				{
					OFFSET 0.000000 0.000000 2.173901
					CHANNELS 6 Xposition Yposition Zposition Zrotation Xrotation Yrotation
					End Site
					{
						OFFSET 0.000000 0.000001 10.420303
					}
				}
			}
			JOINT LeftCollar
			{
				OFFSET 2.426399 -1.880099 4.759399
				CHANNELS 6 Xposition Yposition Zposition Zrotation Xrotation Yrotation
				JOINT LeftShoulder
				{
					OFFSET 4.420197 0.000000 0.000000
					CHANNELS 6 Xposition Yposition Zposition Zrotation Xrotation Yrotation
					JOINT LeftElbow
					{
						OFFSET 0.000000 -0.000001 -10.347099
						CHANNELS 6 Xposition Yposition Zposition Zrotation Xrotation Yrotation
						JOINT LeftWrist
						{
							OFFSET 0.000000 -0.000001 -12.496300
							CHANNELS 6 Xposition Yposition Zposition Zrotation Xrotation Yrotation
							End Site
							{
								OFFSET 0.000000 0.000000 -2.173901
							}
						}
					}
				}
			}
			JOINT RightCollar
			{
				OFFSET -2.781502 -1.903799 5.072601
				CHANNELS 6 Xposition Yposition Zposition Zrotation Xrotation Yrotation
				JOINT RightShoulder
				{
					OFFSET -4.012100 0.000000 0.000000
					CHANNELS 6 Xposition Yposition Zposition Zrotation Xrotation Yrotation
					JOINT RightElbow
					{
						OFFSET 0.000000 -0.000001 -10.346600
						CHANNELS 6 Xposition Yposition Zposition Zrotation Xrotation Yrotation
						JOINT RightWrist
						{
							OFFSET 0.000000 -0.000001 -12.562599
							CHANNELS 6 Xposition Yposition Zposition Zrotation Xrotation Yrotation
							End Site
							{
								OFFSET 0.000000 0.000000 -2.173901
							}
						}
					}
				}
			}
		}
	}
	JOINT LeftHip
	{
		OFFSET 2.047997 -0.047200 -2.693199
		CHANNELS 6 Xposition Yposition Zposition Zrotation Xrotation Yrotation
		JOINT LeftKnee
		{
			OFFSET 0.000000 -0.000001 -18.824400
			CHANNELS 6 Xposition Yposition Zposition Zrotation Xrotation Yrotation
			JOINT LeftAnkle
			{
				OFFSET 0.000000 -0.000002 -19.078199
				CHANNELS 6 Xposition Yposition Zposition Zrotation Xrotation Yrotation
				End Site
				{
					OFFSET 0.000000 -9.342100 0.000001
				}
			}
		}
	}
	JOINT RightHip
	{
		OFFSET -2.129898 -0.022300 -2.538300
		CHANNELS 6 Xposition Yposition Zposition Zrotation Xrotation Yrotation
		JOINT RightKnee
		{
			OFFSET 0.000000 -0.000001 -18.644600
			CHANNELS 6 Xposition Yposition Zposition Zrotation Xrotation Yrotation
			JOINT RightAnkle
			{
				OFFSET 0.000000 -0.000002 -18.801399
				CHANNELS 6 Xposition Yposition Zposition Zrotation Xrotation Yrotation
				End Site
				{
					OFFSET 0.000000 -8.914600 0.000001
				}
			}
		}
	}
}
MOTION
Frames: 4
Frame Time: 0.041667
-12.983704 -44.431904 28.603245 -372.153348 16.960278 -19.194664 -0.160403 1.629992 7.806307 -19.479358 13.903209 -16.910387 0.000009 0.000004 3.198005 6.092160 -4.638495 0.315799 0.000006 0.000008 7.440697 -46.237970 6.719575 -6.854712 -0.000005 0.000005 2.173911 -4.426984 0.838633 -6.400132 2.426404 -1.880094 4.759394 -186.724272 178.760613 -184.403086 4.420200 -0.000002 0.000007 -96.160157 -22.937153 -69.445272 0.000001 -0.000001 -10.347092 361.826785 -54.231627 9.421507 0.000002 -0.000003 -12.496300 -58.192734 169.006214 250.747856 -2.781502 -1.903796 5.072599 -162.259477 -191.239232 170.393276 -4.012102 -0.000006 -0.000007 71.847771 -8.385785 415.397680 -0.000010 0.000003 -10.346596 5.111739 -19.803855 -7.407874 -0.000003 -0.000001 -12.562591 1216.705529 -170.485592 163.116174 2.047993 -0.047206 -2.693198 164.469753 8.086543 69.614476 0.000002 0.000005 -18.824400 -17.190531 186.695940 -98.028330 0.000001 -0.000002 -19.078194 47.681721 -6.848561 56.676380 -2.129897 -0.022306 -2.538297 -508.382564 -11.033042 -109.600583 -0.000004 -0.000004 -18.644596 378.594599 171.395661 96.710431 0.000003 -0.000002 -18.801399 -29.286096 -8.480160 -52.808362
-12.975609 -44.440006 28.575142 -372.139715 16.879346 -19.186372 -0.160397 1.629994 7.806300 -19.606763 13.886726 -17.022372 0.000009 0.000001 3.197998 6.092066 -4.623963 0.315350 -0.000005 0.000010 7.440698 -46.494464 6.918346 -6.802812 -0.000002 0.000004 2.173905 -4.444471 0.861851 -6.436224 2.426402 -1.880093 4.759402 -186.814895 178.676670 -184.437879 4.420198 0.000003 -0.000002 -96.282650 -22.982970 -69.675532 0.000012 -0.000002 -10.347094 361.709907 -53.972872 9.259229 -0.000001 -0.000001 -12.496300 -57.993873 168.852235 250.164803 -2.781501 -1.903797 5.072605 -162.250884 -191.279557 170.432836 -4.012100 0.000006 0.000011 72.065251 -8.334951 415.689684 -0.000008 -0.000001 -10.346593 5.506010 -19.677707 -7.326434 0.000002 -0.000004 -12.562593 1216.488820 -170.427358 163.089932 2.047994 -0.047206 -2.693196 164.648868 8.307161 69.635882 -0.000001 0.000001 -18.824402 -17.588507 187.118865 -98.025994 0.000000 0.000003 -19.078196 47.972978 -6.902318 56.851664 -2.129898 -0.022304 -2.538304 -508.523320 -10.943523 -109.643804 0.000004 -0.000000 -18.644598 378.601866 171.340759 96.686648 0.000002 0.000001 -18.801407 -29.087634 -8.450856 -52.755111
-12.967911 -44.448902 28.548546 -372.132311 16.796313 -19.161440 -0.160402 1.630004 7.806307 -19.721939 13.875632 -17.135524 -0.000000 -0.000007 3.198002 6.086388 -4.613126 0.314934 0.000001 0.000003 7.440702 -46.736020 7.113247 -6.763514 -0.000011 0.000005 2.173905 -4.463388 0.883885 -6.470283 2.426401 -1.880099 4.759399 -186.888934 178.610663 -184.483314 4.420198 0.000002 -0.000009 -96.430953 -23.045678 -69.901454 -0.000007 -0.000004 -10.347087 361.537158 -53.692332 9.040905 0.000012 0.000004 -12.496294 -57.770874 168.707216 249.643086 -2.781502 -1.903798 5.072604 -162.248207 -191.300348 170.470593 -4.012100 0.000006 0.000006 72.259863 -8.299728 415.939177 -0.000009 0.000003 -10.346601 5.839847 -19.547651 -7.258569 -0.000006 0.000002 -12.562596 1216.309268 -170.357526 163.071012 2.047992 -0.047199 -2.693201 164.813967 8.512694 69.668189 0.000000 -0.000001 -18.824400 -17.962095 187.413410 -98.008078 0.000001 0.000001 -19.078197 48.150949 -6.966476 57.034569 -2.129893 -0.022301 -2.538300 -508.658066 -10.858694 -109.669438 -0.000004 -0.000002 -18.644600 378.604216 171.290312 96.658850 0.000003 -0.000004 -18.801395 -28.896017 -8.441643 -52.726243
-12.960617 -44.458511 28.523052 -372.128869 16.710300 -19.123488 -0.160404 1.629997 7.806312 -19.828621 13.871752 -17.246086 0.000005 0.000002 3.198005 6.077891 -4.605309 0.314417 -0.000003 0.000006 7.440697 -46.964186 7.306111 -6.735836 -0.000001 0.000000 2.173916 -4.483191 0.904183 -6.503658 2.426402 -1.880103 4.759406 -186.943862 178.565174 -184.542791 4.420199 0.000000 0.000004 -96.602118 -23.124763 -70.121181 0.000003 -0.000000 -10.347090 361.330394 -53.392483 8.792026 0.000005 -0.000001 -12.496295 -57.535929 168.572033 249.189808 -2.781503 -1.903798 5.072602 -162.248821 -191.302138 170.503829 -4.012100 0.000001 0.000002 72.430604 -8.275455 416.149356 -0.000001 0.000001 -10.346599 6.133942 -19.420075 -7.194885 -0.000005 -0.000004 -12.562593 1215.685918 -170.274990 162.901282 2.047997 -0.047198 -2.693196 164.961199 8.698111 69.710208 0.000001 -0.000006 -18.824400 -18.351117 187.811050 -98.010394 0.000003 -0.000005 -19.078196 48.453922 -7.024328 57.246428 -2.129895 -0.022300 -2.538302 -508.787294 -10.774633 -109.680824 -0.000001 0.000000 -18.644594 378.608970 171.247527 96.627246 0.000001 0.000002 -18.801395 -28.713292 -8.446831 -52.714526
